<?xml version="1.0" encoding="UTF-8"?>
<svg xmlns="http://www.w3.org/2000/svg" viewBox="0 0 722.25 1093.16">
  <defs>
    <style>
      .cls-1 {
        fill: #fefefe;
      }

      .cls-1, .cls-2, .cls-3, .cls-4, .cls-5 {
        stroke-width: 0px;
      }

      .cls-2 {
        fill: #5b8c41;
      }

      .cls-6 {
        fill: none;
        stroke: #fefefe;
        stroke-linecap: round;
        stroke-miterlimit: 10;
        stroke-width: 25px;
      }

      .cls-7 {
        isolation: isolate;
      }

      .cls-3 {
        fill: #2d3133;
      }

      .cls-4 {
        mix-blend-mode: multiply;
        opacity: .6;
      }

      .cls-4, .cls-5 {
        fill: #71b252;
      }
    </style>
  </defs>
  <g class="cls-7">
    <g id="Layer_2" data-name="Layer 2">
      <g id="Layer_1-2" data-name="Layer 1">
        <g>
          <polygon class="cls-5" points="282.86 724.84 273.84 870.26 261.03 1077 235.05 1077 221.03 850.59 213.23 724.84 282.86 724.84"/>
          <polygon class="cls-5" points="515.31 724.84 507.51 850.59 493.5 1077 467.51 1077 454.81 872.05 445.68 724.84 515.31 724.84"/>
          <path class="cls-4" d="M213.23,724.84h69.62l-9.01,145.42c-32.11-9.05-52.15-19.31-52.82-19.67l-7.8-125.75Z"/>
          <path class="cls-4" d="M515.31,724.84l-7.8,125.75c-17.61,9.33-35.28,16.34-52.71,21.46l-9.12-147.21h69.63Z"/>
          <path class="cls-5" d="M586.05,700.62c22.12-9.56,38.03-29.56,42.09-53.32,50.42-294.88-8.07-540.97-156.67-619.77C445.27,13.64,411.42,2.37,367.58.1c-3.68-.19-7.39-.1-11.06.25-45.11,4.38-79.79,17.39-106.47,32.58C100.53,118.04,43.82,361.55,95.66,647.83c4.23,23.34,19.89,43.03,41.66,52.46,51.45,22.3,131.62,47.92,231.49,46.72,92.87-1.11,167.69-25,217.24-46.4Z"/>
          <path class="cls-5" d="M178.02,755.5c-18.11-14.61-38.49-24.47-53.72-30.55,9.12-.51,19.33-.41,30.04.86,5.62.67,10.73-3.35,11.4-8.97.67-5.63-3.35-10.73-8.97-11.4-25.41-3.02-47.97-.23-62.03,2.51-57.46-58.31-74.2-124.68-49.78-197.25,18.83-55.94,55.99-95.1,56.36-95.49,6.54-6.8,6.34-17.6-.45-24.15-6.79-6.56-17.62-6.36-24.17.43-1.72,1.78-42.27,44.28-63.75,107.14-20.26,59.29-26.74,147.89,57.44,233.32.34.35.7.66,1.06.97.58,1.11,1.37,2.14,2.38,3,.37.32.75.65,1.13.97,5.12,26.19,5.74,49.25,1.91,70.21-1.02,5.57,2.67,10.92,8.25,11.93.62.11,1.24.17,1.86.17,4.86,0,9.17-3.47,10.08-8.42,3-16.44,3.6-33.87,1.77-52.69,18.43,17.05,35.69,34.99,46.32,51.82,1.95,3.09,5.28,4.78,8.68,4.78,1.87,0,3.77-.51,5.47-1.59,4.79-3.03,6.22-9.36,3.19-14.15-12.03-19.05-30.52-38.27-50.76-56.88,15.98,5.99,36.42,15.65,53.44,29.38,1.9,1.53,4.17,2.27,6.43,2.27,3,0,5.96-1.31,7.99-3.82,3.56-4.41,2.86-10.87-1.55-14.42Z"/>
          <path class="cls-5" d="M544.23,755c18.11-14.61,38.49-24.47,53.72-30.55-9.12-.51-19.33-.41-30.04.86-5.62.67-10.73-3.35-11.4-8.97-.67-5.63,3.35-10.73,8.97-11.4,25.41-3.02,47.97-.23,62.03,2.51,57.46-58.31,74.2-124.68,49.78-197.25-18.83-55.94-55.99-95.1-56.36-95.49-6.54-6.8-6.34-17.6.45-24.15,6.79-6.56,17.62-6.36,24.17.43,1.72,1.78,42.27,44.28,63.75,107.14,20.26,59.29,26.74,147.89-57.44,233.32-.34.35-.7.66-1.06.97-.58,1.11-1.37,2.14-2.38,3-.37.32-.75.65-1.13.97-5.12,26.19-5.74,49.25-1.91,70.21,1.02,5.57-2.67,10.92-8.25,11.93-.62.11-1.24.17-1.86.17-4.86,0-9.17-3.47-10.08-8.42-3-16.44-3.6-33.87-1.77-52.69-18.43,17.05-35.69,34.99-46.32,51.82-1.95,3.09-5.28,4.78-8.68,4.78-1.87,0-3.77-.51-5.47-1.59-4.79-3.03-6.22-9.36-3.19-14.15,12.03-19.05,30.52-38.27,50.76-56.88-15.98,5.99-36.42,15.65-53.44,29.38-1.9,1.53-4.17,2.27-6.43,2.27-3,0-5.96-1.31-7.99-3.82-3.56-4.41-2.86-10.87,1.55-14.42Z"/>
          <ellipse class="cls-5" cx="245.91" cy="1077.75" rx="66.52" ry="15.41"/>
          <ellipse class="cls-5" cx="480.5" cy="1077.75" rx="66.52" ry="15.41"/>
          <ellipse class="cls-1" cx="238.21" cy="308.23" rx="78.36" ry="95.27"/>
          <circle class="cls-3" cx="251.93" cy="314.43" r="22.93"/>
          <ellipse class="cls-1" cx="477.05" cy="308.23" rx="78.36" ry="95.27"/>
          <circle class="cls-3" cx="490.77" cy="314.43" r="22.93"/>
          <rect class="cls-1" x="339.79" y="348.6" width="31.88" height="72.59" rx="15.94" ry="15.94"/>
          <path class="cls-3" d="M555.41,474.16c-112.94,105.23-297.85,99.97-395.56,0h395.56Z"/>
          <rect class="cls-1" x="259.18" y="487.32" width="23.46" height="41.34" rx="11.73" ry="11.73"/>
          <rect class="cls-1" x="303.37" y="487.32" width="23.46" height="41.34" rx="11.73" ry="11.73"/>
          <rect class="cls-1" x="347.56" y="487.32" width="23.46" height="41.34" rx="11.73" ry="11.73"/>
          <rect class="cls-1" x="391.75" y="487.32" width="23.46" height="41.34" rx="11.73" ry="11.73"/>
          <rect class="cls-1" x="435.94" y="487.32" width="23.46" height="41.34" rx="11.73" ry="11.73"/>
          <path class="cls-6" d="M372.76,44.62s115.61-7.77,175.99,134.46"/>
          <circle class="cls-2" cx="130.16" cy="443.72" r="18.42"/>
          <circle class="cls-2" cx="417.11" cy="671.58" r="18.42"/>
          <circle class="cls-2" cx="258.32" cy="96.45" r="18.42"/>
          <circle class="cls-2" cx="550.69" cy="555.21" r="26.55"/>
          <circle class="cls-2" cx="186.4" cy="663.45" r="26.55"/>
          <circle class="cls-2" cx="415.21" cy="168.48" r="26.55"/>
        </g>
      </g>
    </g>
  </g>
</svg>