<?xml version="1.0" encoding="UTF-8"?>
<svg xmlns="http://www.w3.org/2000/svg" viewBox="0 0 629.31 1083.86">
  <defs>
    <style>
      .cls-1, .cls-2, .cls-3, .cls-4, .cls-5 {
        stroke-width: 0px;
      }

      .cls-1, .cls-5 {
        fill: #f9ba1c;
      }

      .cls-6 {
        isolation: isolate;
      }

      .cls-2 {
        fill: #2d3133;
      }

      .cls-3 {
        fill: #fff;
      }

      .cls-4 {
        fill: #f95c2b;
      }

      .cls-5 {
        mix-blend-mode: multiply;
      }
    </style>
  </defs>
  <g class="cls-6">
    <g id="Layer_2" data-name="Layer 2">
      <g id="Layer_1-2" data-name="Layer 1">
        <g>
          <path class="cls-1" d="M257.07,971.69l-44.74-3.82v74.26c-3.59-1.02-7.37-1.57-11.28-1.57-22.79,0-41.26,18.47-41.26,41.26,0,.69.02,1.37.05,2.04h82.42s0,0,0,0h14.81v-112.17Z"/>
          <path class="cls-1" d="M357.65,971.69l44.74-3.82v74.26c3.59-1.02,7.37-1.57,11.28-1.57,22.79,0,41.26,18.47,41.26,41.26,0,.69-.02,1.37-.05,2.04h-82.42s0,0,0,0h-14.81v-112.17Z"/>
          <path class="cls-1" d="M387.96,174.87h-146.1c-77.25,0-139.88,62.63-139.88,139.88v612.52c0,19.32,14.5,35.52,33.69,37.76,120.08,13.98,239.6,14.14,358.55.07,19.16-2.27,33.62-18.46,33.62-37.75V314.75c0-77.25-62.63-139.88-139.88-139.88Z"/>
          <circle class="cls-3" cx="243.96" cy="348.6" r="62.24"/>
          <circle class="cls-2" cx="243.96" cy="348.6" r="22.67"/>
          <circle class="cls-3" cx="385.37" cy="348.6" r="62.24"/>
          <circle class="cls-2" cx="385.37" cy="348.6" r="22.67"/>
          <path class="cls-1" d="M193.37,185.82c-.05-.66-5.51-66.82-23.7-101.17l24.75-13.1c20.9,39.48,26.63,109.11,26.86,112.05l-27.91,2.21,13.96-1.11-13.96,1.11Z"/>
          <rect class="cls-4" x="139.12" y="27.23" width="68.4" height="55.29" rx="17.1" ry="17.1" transform="translate(-8.34 61.86) rotate(-19.77)"/>
          <path class="cls-1" d="M274.97,181.1c-.04-.71-3.65-71.76-14.29-123.41l27.42-5.65c11.08,53.79,14.69,124.68,14.84,127.67l-27.96,1.38Z"/>
          <path class="cls-1" d="M435.87,185.82l-27.91-2.21c.23-2.94,5.96-72.58,26.86-112.05l24.75,13.1c-18.22,34.42-23.64,100.5-23.7,101.17Z"/>
          <rect class="cls-4" x="423.32" y="28.69" width="68.4" height="55.29" rx="17.1" ry="17.1" transform="translate(869.02 264.1) rotate(-160.23)"/>
          <path class="cls-1" d="M354.27,181.1l-27.96-1.38c.15-2.99,3.75-73.89,14.84-127.67l27.42,5.65c-10.65,51.69-14.26,122.69-14.29,123.41Z"/>
          <path class="cls-2" d="M378.99,475.54c-18.62,30.03-74.75,103.39-128.98,1.65-3.01-5.64-11.08-5.68-14.06-.02-12.83,24.38-35.15,81.37-12.46,152.9,1.2,3.77,6.36,4.26,8.19.75,12.62-24.18,26.45-42.35,43.76-43.38,17.46,1.88,30.13,17.3,39.95,40.76,1.57,3.75,6.91,3.6,8.29-.22,7.03-19.46,18.18-34.37,34.23-43.83,16.18,7.43,27.98,24.47,37.23,47.09,1.46,3.56,6.46,3.7,8.12.23,10.54-22.13,32.03-83.73-10.7-155.84-3.04-5.13-10.45-5.16-13.59-.09Z"/>
          <rect class="cls-5" x="219.56" y="680.02" width="192.72" height="33.15" rx="16.57" ry="16.57"/>
          <rect class="cls-5" x="219.56" y="735.53" width="192.72" height="33.15" rx="16.57" ry="16.57"/>
          <rect class="cls-5" x="219.56" y="791.03" width="192.72" height="33.15" rx="16.57" ry="16.57"/>
          <rect class="cls-5" x="219.56" y="846.53" width="192.72" height="33.15" rx="16.57" ry="16.57"/>
          <rect class="cls-5" x="219.56" y="902.03" width="192.72" height="33.15" rx="16.57" ry="16.57"/>
          <rect class="cls-4" x="235.52" y="2.68" width="68.4" height="55.29" rx="17.1" ry="17.1" transform="translate(-1.31 44.84) rotate(-9.48)"/>
          <rect class="cls-4" x="325.32" y="2.68" width="68.4" height="55.29" rx="17.1" ry="17.1" transform="translate(709.13 119.45) rotate(-170.52)"/>
          <path class="cls-1" d="M623.92,821.71c-5.33-6.5-12.41-15.69-16.77-23.46,0,0,.99,30.57-4.32,50.7-.87,3.33-5.75,2.82-5.96-.61-.83-13.28-3.03-32.42-8.95-38,0,0-6.63,24.9-16.79,40.59-1.89,2.93-6.43.92-5.49-2.44,2.92-10.46,5.53-25.62,1.94-39.8,0,0-16.44,26.2-32.09,35.21-2.72,1.57-5.73-1.59-4.06-4.26,8-12.85,22.37-40.15,14.44-60.08,0,0-14.62,23.93-32.72,30.81-2.51.95-4.91-1.67-3.8-4.11,7.18-15.84,28.86-59.18,52.19-61.87,0,0-18.45-110.81-33.7-145.13v-95.15c10.5,15.16,83.06,124.63,74.64,245.5,0,0,17.53,19.69,26.78,69.62.57,3.08-3.35,4.91-5.34,2.48Z"/>
          <path class="cls-1" d="M116.16,813.06c-18.1-6.88-32.72-30.8-32.72-30.8-7.93,19.92,6.44,47.23,14.44,60.08,1.67,2.66-1.34,5.82-4.06,4.25-15.65-9.01-32.09-35.2-32.09-35.2-3.58,14.18-.98,29.33,1.94,39.79.94,3.36-3.6,5.37-5.49,2.44-10.16-15.69-16.79-40.58-16.79-40.58-5.92,5.57-8.12,24.71-8.94,37.99-.22,3.44-5.1,3.94-5.97.61-5.31-20.12-4.32-50.7-4.32-50.7-4.36,7.78-11.44,16.96-16.76,23.47-1.99,2.43-5.92.6-5.34-2.49,9.24-49.93,26.77-69.62,26.77-69.62-8.57-123.05,66.78-234.29,75.15-246.23v94.79c-15.35,32.98-34.2,146.22-34.2,146.22,23.32,2.69,45.01,46.03,52.18,61.87,1.11,2.45-1.29,5.06-3.8,4.11Z"/>
          <circle class="cls-5" cx="463.86" cy="242.89" r="25.15"/>
          <circle class="cls-5" cx="484.93" cy="317.23" r="21.07"/>
          <circle class="cls-5" cx="407.29" cy="253.02" r="15.02"/>
          <circle class="cls-5" cx="149.31" cy="303.17" r="15.78"/>
          <circle class="cls-5" cx="189.73" cy="247.7" r="32.02"/>
        </g>
      </g>
    </g>
  </g>
</svg>